<?xml version="1.0" encoding="UTF-8" standalone="no"?>
<!DOCTYPE svg PUBLIC "-//W3C//DTD SVG 1.1//EN" "http://www.w3.org/Graphics/SVG/1.1/DTD/svg11.dtd">
<svg width="100%" height="100%" viewBox="0 0 389 116" version="1.1" xmlns="http://www.w3.org/2000/svg" xmlns:xlink="http://www.w3.org/1999/xlink" xml:space="preserve" xmlns:serif="http://www.serif.com/" style="fill-rule:evenodd;clip-rule:evenodd;stroke-linejoin:round;stroke-miterlimit:1.41421;">
    <g id="g2303">
        <g id="path1948" transform="matrix(-1,0,0,1,102.719,-3.08066)">
            <clipPath id="_clip1">
                <rect x="21.821" y="10.905" width="66.064" height="76.483"/>
            </clipPath>
            <g clip-path="url(#_clip1)">
                <path d="M60.51,6.398C55.927,6.419 51.549,6.81 47.698,7.492C36.351,9.496 34.291,13.692 34.291,21.429L47.816,31.347L61.104,31.648L61.104,35.054L34.291,35.054L24.229,35.054C16.436,35.054 9.613,39.738 7.479,48.648C5.017,58.861 4.908,65.234 7.479,75.898C9.385,83.836 13.936,89.492 21.729,89.492L30.948,89.492L30.948,77.242C30.948,68.392 38.605,60.585 47.698,60.585L74.479,60.585C81.934,60.585 87.885,54.447 87.885,46.96L87.885,21.429C87.885,14.163 81.755,8.704 74.479,7.492C69.873,6.725 65.094,6.377 60.51,6.398ZM46.01,14.617C48.78,14.617 51.041,16.915 51.041,19.742C51.041,22.558 48.78,24.835 46.01,24.835C43.231,24.835 40.979,22.558 40.979,19.742C40.979,16.915 43.231,14.617 46.01,14.617Z" style="fill:url(#_Linear2);fill-rule:nonzero;"/>
            </g>
        </g>
        <g id="path19481" serif:id="path1948" transform="matrix(1,1.22465e-16,1.22465e-16,-1,-19.3105,121.06)">
            <clipPath id="_clip3">
                <rect x="21.821" y="10.905" width="66.064" height="76.483"/>
            </clipPath>
            <g clip-path="url(#_clip3)">
                <path d="M60.51,6.398C55.927,6.419 51.549,6.81 47.698,7.492C36.351,9.496 34.291,13.692 34.291,21.429L44.811,31.648L61.104,31.648L61.104,35.054L34.291,35.054L24.229,35.054C16.436,35.054 9.613,39.738 7.479,48.648C5.017,58.861 4.908,65.234 7.479,75.898C9.385,83.836 13.936,89.492 21.729,89.492L30.948,89.492L30.948,77.242C30.948,68.392 38.605,60.585 47.698,60.585L74.479,60.585C81.934,60.585 87.885,54.447 87.885,46.96L87.885,21.429C87.885,14.163 81.755,8.704 74.479,7.492C69.873,6.725 65.094,6.377 60.51,6.398ZM46.01,14.617C48.78,14.617 51.041,16.915 51.041,19.742C51.041,22.558 48.78,24.835 46.01,24.835C43.231,24.835 40.979,22.558 40.979,19.742C40.979,16.915 43.231,14.617 46.01,14.617Z" style="fill:rgb(202,212,90);fill-rule:nonzero;"/>
            </g>
        </g>
        <g transform="matrix(1.13562,0,0,1.13562,-71.7622,-12.6426)">
            <text x="129.238px" y="85.311px" style="font-family:'Calibri', sans-serif;font-size:72.378px;">P<tspan x="167.053px 199.814px " y="85.311px 85.311px ">yC</tspan>hain</text>
        </g>
    </g>
    <defs>
        <linearGradient id="_Linear2" x1="0" y1="0" x2="1" y2="0" gradientUnits="userSpaceOnUse" gradientTransform="matrix(61.3261,53.2723,-53.2723,61.3261,5.59137,6.39705)"><stop offset="0" style="stop-color:rgb(90,159,212);stop-opacity:1"/><stop offset="1" style="stop-color:rgb(48,105,152);stop-opacity:1"/></linearGradient>
    </defs>
</svg>
